<svg width="20" height="16" viewBox="0 0 20 16" fill="none" xmlns="http://www.w3.org/2000/svg">
<path d="M11.1651 0.722328L13.2524 4.40761C13.4062 4.67461 13.6997 4.86002 14.0382 4.90123L18.7267 5.50116C19.0005 5.53494 19.249 5.66185 19.4169 5.85551C19.5828 6.0467 19.6541 6.28898 19.6138 6.52713C19.581 6.72491 19.475 6.90786 19.3128 7.04795L15.9155 9.94129C15.667 10.1432 15.5545 10.4423 15.6145 10.7349L16.4509 14.8025C16.54 15.2937 16.1696 15.7568 15.6145 15.8499C15.3857 15.8821 15.1513 15.8483 14.945 15.756L10.7628 13.8417C10.4524 13.704 10.0858 13.704 9.77543 13.8417L5.59328 15.756C5.07942 15.9958 4.44272 15.8326 4.15672 15.3876C4.05076 15.2104 4.01325 15.0085 4.04795 14.8116L4.88438 10.7431C4.94439 10.4514 4.83093 10.1506 4.58337 9.94871L1.18608 7.05702C0.781933 6.7142 0.769743 6.14971 1.15889 5.79453C1.16733 5.78711 1.17671 5.77887 1.18608 5.77063C1.34737 5.62642 1.55929 5.53494 1.78809 5.51105L6.47659 4.91029C6.81417 4.86826 7.10767 4.6845 7.26239 4.41585L9.27469 0.722328C9.45379 0.405882 9.82512 0.208927 10.2283 0.217168H10.354C10.7038 0.254251 11.0085 0.444613 11.1651 0.722328Z" fill="#FAC412"/>
</svg>
