<svg width="20" height="16" viewBox="0 0 20 16" fill="none" xmlns="http://www.w3.org/2000/svg">
<path d="M10.6651 0.722328L12.7524 4.40761C12.9062 4.67461 13.1997 4.86002 13.5382 4.90123L18.2267 5.50116C18.5005 5.53494 18.749 5.66185 18.9169 5.85551C19.0828 6.0467 19.1541 6.28898 19.1138 6.52713C19.081 6.72491 18.975 6.90786 18.8128 7.04795L15.4155 9.94129C15.167 10.1432 15.0545 10.4423 15.1145 10.7349L15.9509 14.8025C16.04 15.2937 15.6696 15.7568 15.1145 15.8499C14.8857 15.8821 14.6513 15.8483 14.445 15.756L10.2628 13.8417C9.95243 13.704 9.58579 13.704 9.27541 13.8417L5.09326 15.756C4.5794 15.9958 3.9427 15.8326 3.6567 15.3876C3.55074 15.2104 3.51324 15.0085 3.54793 14.8116L4.38436 10.7431C4.44437 10.4514 4.33091 10.1506 4.08336 9.94871L0.686067 7.05702C0.281918 6.7142 0.269728 6.14971 0.658874 5.79453C0.667313 5.78711 0.67669 5.77887 0.686067 5.77063C0.847352 5.62642 1.05927 5.53494 1.28807 5.51105L5.97658 4.91029C6.31415 4.86826 6.60765 4.6845 6.76237 4.41585L8.77468 0.722328C8.95378 0.405882 9.32511 0.208927 9.72832 0.217168H9.85397C10.2037 0.254251 10.5085 0.444613 10.6651 0.722328Z" fill="#FAC412" fill-opacity="0.4"/>
<path d="M9.74231 13.739C9.56072 13.744 9.3838 13.7868 9.22468 13.8635L5.06298 15.7735C4.55376 15.987 3.94439 15.8213 3.6589 15.3935C3.55312 15.2187 3.51474 15.0184 3.55031 14.8222L4.38153 10.7624C4.43769 10.4672 4.32537 10.1672 4.08106 9.95945L0.682243 7.06851C0.278803 6.72146 0.271315 6.15185 0.66633 5.79656C0.671946 5.79161 0.676626 5.78749 0.682243 5.78337C0.843244 5.64323 1.05105 5.55091 1.27477 5.52206L5.96721 4.91535C6.30699 4.87743 6.60185 4.69113 6.75162 4.42074L8.79128 0.680736C8.98505 0.37903 9.35666 0.199325 9.7498 0.218284C9.74231 0.463112 9.74231 13.5725 9.74231 13.739Z" fill="#FAC412"/>
</svg>
